<?xml version="1.0" encoding="UTF-8"?>
<svg version="1.1" xmlns="http://www.w3.org/2000/svg" width="307" height="142">
<path d="M0 0 C0.99265869 -0.00708481 1.98531738 -0.01416962 3.00805664 -0.02146912 C4.09594482 -0.0189917 5.18383301 -0.01651428 6.3046875 -0.01396179 C8.02449829 -0.02162819 8.02449829 -0.02162819 9.77905273 -0.02944946 C13.57931701 -0.04338089 17.37940068 -0.04238615 21.1796875 -0.04008484 C23.81380278 -0.04396949 26.44791742 -0.04830367 29.08203125 -0.05307007 C34.60678721 -0.0612854 40.13149204 -0.06037312 45.65625 -0.05497742 C52.04505351 -0.0489339 58.43363699 -0.06125764 64.82240295 -0.08254749 C70.96642491 -0.10226989 77.11034378 -0.10533946 83.25439453 -0.10181236 C85.86995969 -0.10232709 88.48552825 -0.10759305 91.10107422 -0.11762428 C94.75245302 -0.12990997 98.40331742 -0.12324426 102.0546875 -0.11161804 C103.68651978 -0.12308365 103.68651978 -0.12308365 105.35131836 -0.13478088 C106.34397705 -0.12776657 107.33663574 -0.12075226 108.359375 -0.11352539 C109.65464111 -0.113777 109.65464111 -0.113777 110.97607422 -0.1140337 C113.65841973 0.34210606 114.55236161 1.11741178 116.1796875 3.26069641 C116.85793871 9.31562992 114.61484707 15.79008311 113.12109375 21.62397766 C112.93454224 22.3608783 112.74799072 23.09777893 112.55578613 23.85700989 C112.09931214 25.65880402 111.6398095 27.45983041 111.1796875 29.26069641 C112.21786621 29.24498596 113.25604492 29.22927551 114.32568359 29.21308899 C118.22078526 29.15830584 122.1158537 29.12417256 126.01123047 29.09590149 C127.68902333 29.08092407 129.36677778 29.06053487 131.04443359 29.03437805 C142.34771572 28.86270819 152.40678921 28.90759522 162.3671875 35.01069641 C163.50220703 35.68358704 163.50220703 35.68358704 164.66015625 36.37007141 C167.1796875 38.26069641 167.1796875 38.26069641 168.59814453 40.00019836 C171.16250553 43.07641489 172.96518817 45.00200285 176.96948242 45.85493469 C180.22302677 46.02978243 183.42266201 46.03390761 186.6796875 45.94819641 C199.97146339 45.73832627 199.97146339 45.73832627 206.1796875 50.26069641 C206.1796875 50.92069641 206.1796875 51.58069641 206.1796875 52.26069641 C206.7778125 52.50819641 207.3759375 52.75569641 207.9921875 53.01069641 C211.03750524 54.75087798 212.72433948 56.76070348 213.74902344 60.13618469 C214.48845074 63.78385839 214.40571032 67.42522789 214.4296875 71.13569641 C214.460625 72.32098938 214.460625 72.32098938 214.4921875 73.53022766 C214.5257084 78.56674326 213.84796726 81.84283575 211.1796875 86.26069641 C210.11213916 88.19470558 210.11213916 88.19470558 210.1796875 90.26069641 C211.4536464 92.29903066 212.79030673 94.29921767 214.1796875 96.26069641 C217.15561672 105.43452547 216.5028865 119.48326087 213.1640625 128.41304016 C210.91771164 132.62940506 207.65787353 135.63226513 203.1796875 137.26069641 C197.34588044 138.55077407 191.49949026 138.4808979 185.5546875 138.51069641 C184.00007813 138.54163391 184.00007813 138.54163391 182.4140625 138.57319641 C180.91746094 138.58093079 180.91746094 138.58093079 179.390625 138.58882141 C178.48618652 138.59816711 177.58174805 138.60751282 176.64990234 138.61714172 C173.70101712 138.19162557 172.31621523 137.30812427 170.1796875 135.26069641 C170.1796875 134.60069641 170.1796875 133.94069641 170.1796875 133.26069641 C169.1896875 133.26069641 168.1996875 133.26069641 167.1796875 133.26069641 C167.1796875 127.32069641 167.1796875 121.38069641 167.1796875 115.26069641 C165.8596875 115.26069641 164.5396875 115.26069641 163.1796875 115.26069641 C162.8703125 116.35382141 162.5609375 117.44694641 162.2421875 118.57319641 C161.59630853 120.81477635 160.9173758 123.04763151 160.1796875 125.26069641 C160.26541977 127.32656756 160.41802285 129.39016166 160.6171875 131.44819641 C160.71902344 132.5348761 160.82085937 133.62155579 160.92578125 134.74116516 C161.00957031 135.57261047 161.09335938 136.40405579 161.1796875 137.26069641 C157.74765536 138.03567141 154.57169238 138.39645178 151.0546875 138.38569641 C150.20648438 138.38827454 149.35828125 138.39085266 148.484375 138.39350891 C146.1796875 138.26069641 146.1796875 138.26069641 143.1796875 137.26069641 C142.8496875 136.60069641 142.5196875 135.94069641 142.1796875 135.26069641 C139.83060875 134.57138297 139.83060875 134.57138297 137.1171875 134.13569641 C135.73853516 133.88432922 135.73853516 133.88432922 134.33203125 133.62788391 C133.62175781 133.50671204 132.91148437 133.38554016 132.1796875 133.26069641 C131.8496875 134.58069641 131.5196875 135.90069641 131.1796875 137.26069641 C128.78440156 137.51077029 126.39089425 137.73621767 123.9921875 137.94819641 C123.31865234 138.02102844 122.64511719 138.09386047 121.95117188 138.16889954 C117.42845913 138.54395376 114.72752845 138.16097027 111.1796875 135.26069641 C111.1796875 134.60069641 111.1796875 133.94069641 111.1796875 133.26069641 C110.5196875 133.26069641 109.8596875 133.26069641 109.1796875 133.26069641 C109.3206224 130.82282256 109.46723292 128.38551788 109.6171875 125.94819641 C109.65650391 125.25790344 109.69582031 124.56761047 109.73632812 123.85639954 C109.92896165 120.78908107 110.20291467 118.19101489 111.1796875 115.26069641 C104.9096875 115.26069641 98.6396875 115.26069641 92.1796875 115.26069641 C92.54742003 121.37889175 92.54742003 121.37889175 92.92797852 127.49629211 C92.99263306 128.64230896 92.99263306 128.64230896 93.05859375 129.81147766 C93.1057251 130.59176331 93.15285645 131.37204895 93.20141602 132.17597961 C93.1796875 134.26069641 93.1796875 134.26069641 92.1796875 137.26069641 C84.7261594 138.75140203 78.84887321 139.38923995 72.1796875 135.26069641 C70.1796875 133.26069641 70.1796875 133.26069641 69.95263672 131.38130188 C69.96311035 130.63767395 69.97358398 129.89404602 69.984375 129.12788391 C69.99082031 128.32221985 69.99726562 127.51655579 70.00390625 126.68647766 C70.02904297 125.42384094 70.02904297 125.42384094 70.0546875 124.13569641 C70.06371094 123.28620422 70.07273437 122.43671204 70.08203125 121.56147766 C70.10563103 119.46109757 70.14150267 117.36086197 70.1796875 115.26069641 C66.2196875 115.26069641 62.2596875 115.26069641 58.1796875 115.26069641 C58.05787109 116.58520813 58.05787109 116.58520813 57.93359375 117.93647766 C56.52317557 124.15547181 51.44442968 129.1493284 46.15625 132.56929016 C39.82950282 135.26784151 32.48591422 135.24584358 25.9921875 133.13569641 C18.63898291 129.92702532 14.72755604 125.41972711 11.80859375 118.01850891 C11.60105469 117.43843079 11.39351562 116.85835266 11.1796875 116.26069641 C9.37371094 116.18721985 9.37371094 116.18721985 7.53125 116.11225891 C5.95570552 116.03723298 4.38018584 115.96168508 2.8046875 115.88569641 C2.010625 115.85475891 1.2165625 115.82382141 0.3984375 115.79194641 C-5.59375 115.48725891 -5.59375 115.48725891 -7.8203125 113.26069641 C-8.0703125 110.26069641 -8.0703125 110.26069641 -7.8203125 107.26069641 C-5.8203125 105.26069641 -5.8203125 105.26069641 -1.90625 105.06538391 C-0.33581899 105.07869265 1.23454971 105.10256039 2.8046875 105.13569641 C3.60648438 105.14471985 4.40828125 105.15374329 5.234375 105.16304016 C7.21627273 105.18663418 9.19801731 105.22250577 11.1796875 105.26069641 C11.44652344 104.1920636 11.71335937 103.12343079 11.98828125 102.02241516 C13.83476163 96.1923804 17.17880804 92.31302202 22.21875 88.86616516 C29.07389082 85.33888361 36.60035146 84.86306502 43.95703125 87.10835266 C49.98243245 89.781275 54.10486443 93.3968145 57.1796875 99.26069641 C58.0546875 102.76069641 58.0546875 102.76069641 58.1796875 105.26069641 C62.1396875 105.26069641 66.0996875 105.26069641 70.1796875 105.26069641 C69.82664551 103.82870911 69.47360352 102.3967218 69.10986328 100.92134094 C67.79191661 95.57308328 66.47683969 90.22412333 65.16259766 84.87495422 C64.5950127 82.56649545 64.02666524 80.25822401 63.45751953 77.95014954 C62.63630474 74.61926781 61.81789767 71.2877065 61 67.95600891 C60.62175583 66.42570541 60.62175583 66.42570541 60.23587036 64.86448669 C58.72313281 58.68834746 57.3844436 52.50443237 56.1796875 46.26069641 C62.4496875 46.26069641 68.7196875 46.26069641 75.1796875 46.26069641 C75.1796875 47.58069641 75.1796875 48.90069641 75.1796875 50.26069641 C76.4996875 50.26069641 77.8196875 50.26069641 79.1796875 50.26069641 C80.1696875 53.23069641 80.1696875 53.23069641 81.1796875 56.26069641 C81.8396875 52.96069641 82.4996875 49.66069641 83.1796875 46.26069641 C87.4696875 45.93069641 91.7596875 45.60069641 96.1796875 45.26069641 C96.38650146 44.33732483 96.59331543 43.41395325 96.80639648 42.46260071 C97.57485455 39.0350749 98.34469653 35.60786606 99.11547852 32.18086243 C99.4487162 30.6979142 99.78140267 29.214842 100.11352539 27.73164368 C100.59115868 25.59907174 101.07077612 23.46695432 101.55078125 21.33491516 C101.83880615 20.05189514 102.12683105 18.76887512 102.42358398 17.44697571 C103.1796875 14.26069641 103.1796875 14.26069641 104.1796875 11.26069641 C103.62069606 11.26254 103.06170462 11.26438358 102.48577404 11.26628304 C88.89040339 11.31043297 75.29504529 11.34341118 61.69961834 11.36432076 C55.12499514 11.37477148 48.55042356 11.3889542 41.97583008 11.41157532 C35.63460086 11.43325771 29.29342139 11.44525532 22.95215797 11.4504509 C20.5291751 11.45415494 18.10619504 11.46138769 15.68323326 11.47215652 C12.29746933 11.48661016 8.91191271 11.48867691 5.52612305 11.48774719 C4.51767838 11.49493774 3.5092337 11.5021283 2.4702301 11.50953674 C1.54896332 11.50678741 0.62769653 11.50403809 -0.32148743 11.50120544 C-1.12252553 11.50304903 -1.92356363 11.50489262 -2.74887562 11.50679207 C-4.8203125 11.26069641 -4.8203125 11.26069641 -7.8203125 9.26069641 C-8.1953125 5.76069641 -8.1953125 5.76069641 -7.8203125 2.26069641 C-4.58875827 0.10632693 -3.72475198 0.00885505 0 0 Z M108.1796875 39.26069641 C106.34924073 47.27426118 104.5234443 55.28886516 102.7035675 63.30483627 C101.85837175 67.02697585 101.0115816 70.74873762 100.16113281 74.46968079 C99.34039422 78.06090471 98.52386343 81.65306166 97.7102356 85.24590302 C97.39915493 86.61615787 97.08656215 87.98607035 96.77243042 89.35562897 C96.3325611 91.27456805 95.89857359 93.19485252 95.46484375 95.1151886 C95.21613525 96.20772949 94.96742676 97.30027039 94.71118164 98.42591858 C94.05683444 101.43525023 94.05683444 101.43525023 94.1796875 105.26069641 C100.1196875 105.26069641 106.0596875 105.26069641 112.1796875 105.26069641 C112.8983661 98.46612541 113.6102089 91.67088455 114.31591797 84.87495422 C114.55658461 82.56649275 114.79906924 80.25822003 115.04345703 77.95014954 C115.3958182 74.61925788 115.74148507 71.2877266 116.0859375 67.95600891 C116.1953064 66.93580658 116.30467529 65.91560425 116.4173584 64.86448669 C116.51746216 63.88422516 116.61756592 62.90396362 116.72070312 61.89399719 C116.80952759 61.04572357 116.89835205 60.19744995 116.98986816 59.32347107 C117.25924048 54.9770925 117.1796875 50.61541433 117.1796875 46.26069641 C127.4096875 46.26069641 137.6396875 46.26069641 148.1796875 46.26069641 C148.1796875 46.92069641 148.1796875 47.58069641 148.1796875 48.26069641 C148.8396875 48.26069641 149.4996875 48.26069641 150.1796875 48.26069641 C150.1796875 48.92069641 150.1796875 49.58069641 150.1796875 50.26069641 C150.8396875 50.26069641 151.4996875 50.26069641 152.1796875 50.26069641 C152.27991211 51.53710999 152.38013672 52.81352356 152.48339844 54.12861633 C152.86067278 58.87319468 153.26130338 63.61556252 153.66894531 68.35762024 C153.84197376 70.40852574 154.00870106 72.45997316 154.16894531 74.51191711 C154.40067128 77.46499283 154.6551485 80.41536424 154.9140625 83.36616516 C154.98091248 84.28093124 155.04776245 85.19569733 155.11663818 86.13818359 C155.60385942 91.39334008 156.32918427 94.36854565 160.1796875 98.26069641 C161.36768262 100.55246311 162.23444936 102.85033915 163.1796875 105.26069641 C164.1696875 105.26069641 165.1596875 105.26069641 166.1796875 105.26069641 C167.02178757 102.30159549 167.33804983 99.59958702 167.42016602 96.52729797 C167.45878502 95.12498932 167.45878502 95.12498932 167.4981842 93.6943512 C167.58290719 89.42657239 167.64818476 85.15894854 167.69458008 80.89057922 C167.72622153 78.64419864 167.77397694 76.3979851 167.83813477 74.15229797 C167.9296606 70.90133842 167.96823717 67.65337702 167.99609375 64.40132141 C168.05332359 62.90716705 168.05332359 62.90716705 168.11170959 61.38282776 C168.09600914 55.7124626 167.34167435 52.78949462 163.30322266 48.67939758 C160.39527191 46.11119186 157.53708664 43.9481828 153.9921875 42.32319641 C153.19425781 41.94292297 152.39632812 41.56264954 151.57421875 41.17085266 C146.37070053 39.19300642 141.32697466 39.12569804 135.81640625 39.16304016 C134.62843193 39.16516258 134.62843193 39.16516258 133.41645813 39.16732788 C130.89999531 39.17290184 128.38362319 39.18544948 125.8671875 39.19819641 C124.15560025 39.20321478 122.44401159 39.2077771 120.73242188 39.21186829 C116.54814242 39.22286273 112.36393031 39.24010934 108.1796875 39.26069641 Z M190.1796875 64.26069641 C190.1796875 68.55069641 190.1796875 72.84069641 190.1796875 77.26069641 C192.05153121 73.51700899 192.41968517 72.42061731 192.3046875 68.51069641 C192.28664062 67.71147766 192.26859375 66.91225891 192.25 66.08882141 C192.22679687 65.48554016 192.20359375 64.88225891 192.1796875 64.26069641 C191.5196875 64.26069641 190.8596875 64.26069641 190.1796875 64.26069641 Z M23.8671875 101.38569641 C21.57033733 105.29884855 20.98014725 108.74310518 21.1796875 113.26069641 C22.77460543 117.95684365 24.92412416 120.7073584 29.1796875 123.26069641 C34.90984994 124.76368984 38.33535883 124.44932543 43.484375 121.49116516 C47.05461396 118.89986269 47.94787047 116.07978325 49.1171875 111.94819641 C49.19846393 107.15288704 48.07306197 104.07168393 45.1796875 100.26069641 C42.14058186 97.64001836 39.11622783 96.39448789 35.1171875 95.82319641 C30.43037831 96.52123182 27.34329327 98.19143706 23.8671875 101.38569641 Z M135.1796875 97.26069641 C133.76391273 98.44493967 133.76391273 98.44493967 134.1171875 101.82319641 C134.1378125 102.95757141 134.1584375 104.09194641 134.1796875 105.26069641 C134.8396875 105.26069641 135.4996875 105.26069641 136.1796875 105.26069641 C136.1796875 102.62069641 136.1796875 99.98069641 136.1796875 97.26069641 C135.8496875 97.26069641 135.5196875 97.26069641 135.1796875 97.26069641 Z M190.1796875 97.26069641 C190.1796875 103.53069641 190.1796875 109.80069641 190.1796875 116.26069641 C190.8396875 115.93069641 191.4996875 115.60069641 192.1796875 115.26069641 C193.30558241 111.88301167 193.31263025 109.25257569 193.3046875 105.69819641 C193.30726563 104.54190735 193.30984375 103.38561829 193.3125 102.19429016 C193.38171366 99.32616203 193.38171366 99.32616203 192.1796875 97.26069641 C191.5196875 97.26069641 190.8596875 97.26069641 190.1796875 97.26069641 Z " fill="#0C0C0C" transform="translate(52.8203125,0.7393035888671875)"/>
<path d="M0 0 C5.61 0 11.22 0 17 0 C17 0.66 17 1.32 17 2 C18.65 2.66 20.3 3.32 22 4 C22 32.71 22 61.42 22 91 C6 92 6 92 2 89 C2 88.34 2 87.68 2 87 C1.34 87 0.68 87 0 87 C0 58.29 0 29.58 0 0 Z " fill="#020202" transform="translate(275,47)"/>
<path d="M0 0 C1.8170343 -0.01429802 1.8170343 -0.01429802 3.67077637 -0.02888489 C5.63488464 -0.02751778 5.63488464 -0.02751778 7.63867188 -0.02612305 C8.99483369 -0.0300101 10.3509943 -0.03434479 11.70715332 -0.03910828 C14.54846139 -0.04656804 17.38964519 -0.04628072 20.23095703 -0.04101562 C23.872911 -0.0352165 27.51435714 -0.05216318 31.15622711 -0.0753603 C33.95634944 -0.09008692 36.7563491 -0.09097092 39.5565033 -0.08785057 C41.55238074 -0.08861395 43.54823916 -0.10249365 45.54406738 -0.11653137 C47.36110168 -0.10718819 47.36110168 -0.10718819 49.21484375 -0.09765625 C50.81676575 -0.09860039 50.81676575 -0.09860039 52.4510498 -0.0995636 C55.10742188 0.2746582 55.10742188 0.2746582 56.94836426 1.64167786 C58.10742188 3.2746582 58.10742188 3.2746582 58.54492188 5.7746582 C58.10742188 8.2746582 58.10742188 8.2746582 56.44972229 9.90763855 C53.50380389 11.62694335 51.59494446 11.64901586 48.19311523 11.64697266 C47.00185532 11.65320145 45.8105954 11.65943024 44.58323669 11.66584778 C43.30086624 11.65663803 42.01849579 11.64742828 40.69726562 11.63793945 C39.37827774 11.63843796 38.05928986 11.63893646 36.70033264 11.63945007 C33.91200285 11.63936048 31.12396299 11.62895674 28.33569336 11.61083984 C24.76222317 11.58813078 21.18917556 11.58761383 17.61565304 11.59435749 C14.20530898 11.59850197 10.79509511 11.58652697 7.38476562 11.57543945 C6.10037094 11.57635086 4.81597626 11.57726227 3.49266052 11.57820129 C2.30455276 11.56866928 1.11644501 11.55913727 -0.10766602 11.54931641 C-1.15483292 11.54470901 -2.20199982 11.54010162 -3.28089905 11.53535461 C-5.89257812 11.2746582 -5.89257812 11.2746582 -8.89257812 9.2746582 C-9.26757812 5.7746582 -9.26757812 5.7746582 -8.89257812 2.2746582 C-5.42834438 -0.03483096 -4.08651531 0.01763024 0 0 Z " fill="#252525" transform="translate(15.892578125,76.725341796875)"/>
<path d="M0 0 C3.3726934 1.39559727 5.08045102 2.8921588 7 6 C8.29661668 10.27127329 8.22138469 14.44678003 8.25 18.875 C8.270625 19.66519531 8.29125 20.45539063 8.3125 21.26953125 C8.3460209 26.30604685 7.66827976 29.58213934 5 34 C3.93245166 35.93400917 3.93245166 35.93400917 4 38 C5.2739589 40.03833424 6.61061923 42.03852126 8 44 C10.97592922 53.17382906 10.323199 67.22256446 6.984375 76.15234375 C4.73802414 80.36870865 1.47818603 83.37156872 -3 85 C-8.83380706 86.29007766 -14.68019724 86.22020149 -20.625 86.25 C-21.66140625 86.270625 -22.6978125 86.29125 -23.765625 86.3125 C-24.76335937 86.31765625 -25.76109375 86.3228125 -26.7890625 86.328125 C-27.69350098 86.3374707 -28.59793945 86.34681641 -29.52978516 86.35644531 C-32.47867038 85.93092916 -33.86347227 85.04742785 -36 83 C-36 82.34 -36 81.68 -36 81 C-35.25427734 80.9906543 -34.50855469 80.98130859 -33.74023438 80.97167969 C-30.3261785 80.9176397 -26.91344345 80.83405696 -23.5 80.75 C-21.74042969 80.72873047 -21.74042969 80.72873047 -19.9453125 80.70703125 C-12.88914791 80.50882438 -7.95429052 79.90157171 -2 76 C3.41782272 69.34302092 3.20501493 61.69917464 3.25 53.5625 C3.270625 52.63373047 3.29125 51.70496094 3.3125 50.74804688 C3.35268343 43.69083118 2.25962075 39.4172687 -2.6875 34.125 C-3.450625 33.42375 -4.21375 32.7225 -5 32 C-4.1028125 31.6596875 -4.1028125 31.6596875 -3.1875 31.3125 C-0.21671843 29.53003106 0.55449571 28.18092611 2 25 C2.41158475 21.6587913 2.37340453 18.36193013 2.3125 15 C2.31572266 14.11054687 2.31894531 13.22109375 2.32226562 12.3046875 C2.28514658 7.78291273 2.14317049 4.09849336 0 0 Z " fill="#9D9D9D" transform="translate(259,53)"/>
<path d="M0 0 C1.05449341 -0.00960754 2.10898682 -0.01921509 3.19543457 -0.02911377 C4.33814819 -0.03336365 5.48086182 -0.03761353 6.65820312 -0.04199219 C8.41142883 -0.0505423 8.41142883 -0.0505423 10.20007324 -0.05926514 C12.67487683 -0.06872293 15.14969305 -0.0752522 17.62451172 -0.07910156 C21.42372357 -0.08882692 25.22239914 -0.11985177 29.02148438 -0.15136719 C31.42122073 -0.15789496 33.82096097 -0.16314631 36.22070312 -0.16699219 C37.36341675 -0.17933899 38.50613037 -0.19168579 39.68347168 -0.20440674 C40.73796509 -0.20140564 41.7924585 -0.19840454 42.87890625 -0.1953125 C43.80997192 -0.19895813 44.7410376 -0.20260376 45.70031738 -0.20635986 C46.43923218 -0.08508728 47.17814697 0.0361853 47.93945312 0.16113281 C49.93945312 3.16113281 49.93945312 3.16113281 49.62695312 6.28613281 C48.93945312 9.16113281 48.93945312 9.16113281 47.93945312 10.16113281 C46.29848192 10.2702448 44.65285124 10.31019494 43.00830078 10.32226562 C41.43128891 10.33667694 41.43128891 10.33667694 39.82241821 10.35137939 C38.10531143 10.35775421 38.10531143 10.35775421 36.35351562 10.36425781 C35.18565521 10.36995789 34.0177948 10.37565796 32.81454468 10.38153076 C30.33796093 10.39099797 27.86136448 10.39752154 25.38476562 10.40136719 C21.58766795 10.41107347 17.79111111 10.44208177 13.99414062 10.47363281 C11.59310219 10.48016233 9.19205986 10.485413 6.79101562 10.48925781 C5.07998154 10.50777802 5.07998154 10.50777802 3.3343811 10.52667236 C2.27673553 10.52367126 1.21908997 10.52067017 0.12939453 10.51757812 C-0.80246674 10.52122375 -1.734328 10.52486938 -2.69442749 10.52862549 C-5.06054688 10.16113281 -5.06054688 10.16113281 -6.89663696 8.83416748 C-8.06054688 7.16113281 -8.06054688 7.16113281 -7.87304688 4.03613281 C-7.60492187 3.08738281 -7.33679688 2.13863281 -7.06054688 1.16113281 C-4.54996361 -0.09415882 -2.8097035 0.02060506 0 0 Z " fill="#121212" transform="translate(24.060546875,48.8388671875)"/>
<path d="M0 0 C1.65 0.66 3.3 1.32 5 2 C5 30.71 5 59.42 5 89 C-11 90 -11 90 -15 87 C-15 86.34 -15 85.68 -15 85 C-10.05 85 -5.1 85 0 85 C0 56.95 0 28.9 0 0 Z " fill="#999999" transform="translate(292,49)"/>
<path d="M0 0 C1.24644287 -0.01429802 1.24644287 -0.01429802 2.51806641 -0.02888489 C3.41187012 -0.02797348 4.30567383 -0.02706207 5.2265625 -0.02612305 C6.14743652 -0.03040817 7.06831055 -0.0346933 8.01708984 -0.03910828 C9.96385882 -0.04485068 11.91064926 -0.04535249 13.85742188 -0.04101562 C16.84021457 -0.03785383 19.82201733 -0.06132215 22.8046875 -0.08666992 C24.69531125 -0.08894269 26.58593766 -0.08964652 28.4765625 -0.08862305 C29.37036621 -0.09783279 30.26416992 -0.10704254 31.18505859 -0.11653137 C32.43150146 -0.10718819 32.43150146 -0.10718819 33.703125 -0.09765625 C34.43354004 -0.09828568 35.16395508 -0.0989151 35.91650391 -0.0995636 C38.41849684 0.38429788 39.30546181 1.28363311 40.8515625 3.2746582 C41.2890625 5.7746582 41.2890625 5.7746582 40.8515625 8.2746582 C39.08103238 10.24643858 37.60831227 11.16242254 34.97045898 11.5536499 C32.59235545 11.67268816 30.23261257 11.69027331 27.8515625 11.6730957 C26.54251953 11.67740097 26.54251953 11.67740097 25.20703125 11.68179321 C23.36457672 11.68383187 21.52210045 11.67831585 19.6796875 11.66577148 C16.86148629 11.64971474 14.04471917 11.66562658 11.2265625 11.68481445 C9.43489267 11.68283199 7.64322374 11.67898824 5.8515625 11.6730957 C4.58892578 11.68220474 4.58892578 11.68220474 3.30078125 11.6914978 C-0.20571129 11.6493973 -2.54441165 11.59237673 -5.68359375 9.94116211 C-7.1484375 8.2746582 -7.1484375 8.2746582 -7.5859375 5.2121582 C-7.4415625 4.2427832 -7.2971875 3.2734082 -7.1484375 2.2746582 C-4.08700868 0.23370566 -3.45102254 0.02176873 0 0 Z " fill="#252525" transform="translate(33.1484375,19.725341796875)"/>
<path d="M0 0 C0.66 0 1.32 0 2 0 C1.6760785 2.9152935 0.80408017 4.25714478 -1 6.625 C-7.69158796 11.92250713 -16.61727571 11.33881735 -24.8125 11.3125 C-25.83537109 11.32861328 -26.85824219 11.34472656 -27.91210938 11.36132812 C-29.3884082 11.36229492 -29.3884082 11.36229492 -30.89453125 11.36328125 C-31.77987549 11.36626221 -32.66521973 11.36924316 -33.57739258 11.37231445 C-36.48657902 10.9252209 -37.88367956 10.01734366 -40 8 C-40 7.34 -40 6.68 -40 6 C-39.25427734 5.9906543 -38.50855469 5.98130859 -37.74023438 5.97167969 C-34.3261785 5.9176397 -30.91344345 5.83405696 -27.5 5.75 C-25.74042969 5.72873047 -25.74042969 5.72873047 -23.9453125 5.70703125 C-16.78311885 5.50584604 -12.18785477 4.58548594 -6 1 C-3 1.25 -3 1.25 -1 2 C-0.67 1.34 -0.34 0.68 0 0 Z " fill="#A8A8A8" transform="translate(263,128)"/>
<path d="M0 0 C0.33 0.66 0.66 1.32 1 2 C1.66 2 2.32 2 3 2 C3 2.66 3 3.32 3 4 C3.66 4 4.32 4 5 4 C6.41293819 6.82587639 6.44462859 9.48050471 6.75390625 12.625 C6.81907944 13.28653076 6.88425262 13.94806152 6.95140076 14.62963867 C7.08865684 16.03496263 7.22385896 17.44048846 7.35717773 18.84619141 C7.55912115 20.96455621 7.77028927 23.08185318 7.98242188 25.19921875 C8.69339218 32.47564091 9.22762848 39.6806998 9 47 C6.38978403 45.43138978 4.3744727 44.14666491 3.39779663 41.15600586 C3.03603283 38.84289495 2.81238338 36.55345064 2.63671875 34.21875 C2.55500931 33.36825073 2.47329987 32.51775146 2.38911438 31.64147949 C2.13383921 28.92912057 1.91051733 26.21518185 1.6875 23.5 C1.51962725 21.67298764 1.34972749 19.84616033 1.17773438 18.01953125 C0 5.24906224 0 5.24906224 0 0 Z " fill="#A0A0A0" transform="translate(200,47)"/>
<path d="M0 0 C0.88945312 0.00322266 1.77890625 0.00644531 2.6953125 0.00976562 C4.07589844 0.02233398 4.07589844 0.02233398 5.484375 0.03515625 C6.42023438 0.03966797 7.35609375 0.04417969 8.3203125 0.04882812 C10.62506541 0.06058707 12.92968727 0.07702199 15.234375 0.09765625 C15.234375 0.42765625 15.234375 0.75765625 15.234375 1.09765625 C8.964375 1.09765625 2.694375 1.09765625 -3.765625 1.09765625 C-3.39789247 7.21585158 -3.39789247 7.21585158 -3.01733398 13.33325195 C-2.97423096 14.09726318 -2.93112793 14.86127441 -2.88671875 15.6484375 C-2.8395874 16.42872314 -2.79245605 17.20900879 -2.74389648 18.01293945 C-2.765625 20.09765625 -2.765625 20.09765625 -3.765625 23.09765625 C-11.29250981 24.60303321 -16.99577384 25.15956694 -23.765625 21.09765625 C-23.435625 20.43765625 -23.105625 19.77765625 -22.765625 19.09765625 C-18.145625 19.09765625 -13.525625 19.09765625 -8.765625 19.09765625 C-8.765625 13.15765625 -8.765625 7.21765625 -8.765625 1.09765625 C-5.49305732 0.27951433 -3.28568601 -0.02106209 0 0 Z " fill="#9D9D9D" transform="translate(148.765625,114.90234375)"/>
<path d="M0 0 C1.98 0 3.96 0 6 0 C6.66 0.99 7.32 1.98 8 3 C7.67 3.99 7.34 4.98 7 6 C7 5.34 7 4.68 7 4 C6.34 4 5.68 4 5 4 C5.14046255 6.95867918 5.28712224 9.91682264 5.4375 12.875 C5.47681641 13.71675781 5.51613281 14.55851562 5.55664062 15.42578125 C5.59853516 16.23144531 5.64042969 17.03710938 5.68359375 17.8671875 C5.72025146 18.61081543 5.75690918 19.35444336 5.79467773 20.12060547 C5.89955865 22.08864312 5.89955865 22.08864312 7 24 C4.69 24 2.38 24 0 24 C0 16.08 0 8.16 0 0 Z " fill="#A8A8A8" transform="translate(238,94)"/>
<path d="M0 0 C0.66 0.33 1.32 0.66 2 1 C2.4140625 3.72265625 2.4140625 3.72265625 2.625 7.0625 C2.69976562 8.16722656 2.77453125 9.27195313 2.8515625 10.41015625 C2.90054688 11.26480469 2.94953125 12.11945313 3 13 C-0.43203214 13.774975 -3.60799512 14.13575537 -7.125 14.125 C-8.39730469 14.12886719 -8.39730469 14.12886719 -9.6953125 14.1328125 C-12 14 -12 14 -15 13 C-15.33 12.34 -15.66 11.68 -16 11 C-17.89533342 10.53476937 -17.89533342 10.53476937 -20.0625 10.375 C-21.361875 10.25125 -22.66125 10.1275 -24 10 C-24 9.67 -24 9.34 -24 9 C-17.07 9 -10.14 9 -3 9 C-3 7.02 -3 5.04 -3 3 C-1.5 1.125 -1.5 1.125 0 0 Z " fill="#A6A6A6" transform="translate(211,125)"/>
<path d="M0 0 C1.98 0 3.96 0 6 0 C6.33 1.32 6.66 2.64 7 4 C6.34 4 5.68 4 5 4 C5.08378906 4.99902344 5.16757813 5.99804688 5.25390625 7.02734375 C5.35574219 8.31769531 5.45757812 9.60804687 5.5625 10.9375 C5.66691406 12.22527344 5.77132812 13.51304688 5.87890625 14.83984375 C5.91886719 15.88269531 5.95882812 16.92554688 6 18 C5.67 18.33 5.34 18.66 5 19 C3.35 19 1.7 19 0 19 C0 12.73 0 6.46 0 0 Z " fill="#A5A5A5" transform="translate(238,61)"/>
<path d="M0 0 C2.475 0.99 2.475 0.99 5 2 C5 30.71 5 59.42 5 89 C4.67 89 4.34 89 4 89 C3.67 60.95 3.34 32.9 3 4 C2.01 3.67 1.02 3.34 0 3 C0 2.01 0 1.02 0 0 Z " fill="#DDDDDD" transform="translate(292,49)"/>
<path d="M0 0 C2.97 0.495 2.97 0.495 6 1 C5.34 2.65 4.68 4.3 4 6 C1.60471406 6.25007388 -0.78879325 6.47552126 -3.1875 6.6875 C-4.19780273 6.79674805 -4.19780273 6.79674805 -5.22851562 6.90820312 C-9.75122837 7.28325735 -12.45215905 6.90027386 -16 4 C-16 3.34 -16 2.68 -16 2 C-10.72 2 -5.44 2 0 2 C0 1.34 0 0.68 0 0 Z " fill="#A5A5A5" transform="translate(180,132)"/>
<path d="M0 0 C0.33 0 0.66 0 1 0 C1.74515899 3.38636309 2.16770563 6.61943103 2.31640625 10.08203125 C2.35830078 11.01337891 2.40019531 11.94472656 2.44335938 12.90429688 C2.48267578 13.86400391 2.52199219 14.82371094 2.5625 15.8125 C2.60568359 16.79154297 2.64886719 17.77058594 2.69335938 18.77929688 C2.7990226 21.18607027 2.90112327 23.59293983 3 26 C1.35 26.33 -0.3 26.66 -2 27 C-1.85967508 23.81223289 -1.71173356 20.6248615 -1.5625 17.4375 C-1.52318359 16.54224609 -1.48386719 15.64699219 -1.44335938 14.72460938 C-1.20667217 9.7541781 -0.80178328 4.91176481 0 0 Z " fill="#8E8E8E" transform="translate(185,62)"/>
<path d="M0 0 C1.32 0 2.64 0 4 0 C5.74097553 6.76246694 6.64293011 13.11029308 5 20 C4.34 20.66 3.68 21.32 3 22 C2.49465273 19.27172635 1.99556155 16.54255306 1.5 13.8125 C1.35691406 13.04357422 1.21382812 12.27464844 1.06640625 11.48242188 C0.36761285 7.60578227 -0.19039017 3.958529 0 0 Z " fill="#9E9E9E" transform="translate(128,51)"/>
<path d="M0 0 C2.45840605 -0.02691685 4.91651882 -0.04679802 7.375 -0.0625 C8.07367188 -0.07087891 8.77234375 -0.07925781 9.4921875 -0.08789062 C14.7734375 -0.11328125 14.7734375 -0.11328125 17 1 C17 1.99 17 2.98 17 4 C11.89254788 5.27686303 6.2570738 6.24139059 1.5 3.625 C0 2 0 2 0 0 Z " fill="#AEAEAE" transform="translate(277,134)"/>
<path d="M0 0 C4.62 0 9.24 0 14 0 C14.33 1.32 14.66 2.64 15 4 C11.80885219 5.5955739 8.47259755 5.38584417 5 5 C1.5 3.5 1.5 3.5 -1 2 C-0.67 1.34 -0.34 0.68 0 0 Z " fill="#B0B0B0" transform="translate(126,134)"/>
<path d="M0 0 C0.33 0.66 0.66 1.32 1 2 C0.484375 2.5775 -0.03125 3.155 -0.5625 3.75 C-2.23224345 5.83303528 -2.23224345 5.83303528 -1.75 7.9375 C-1.5025 8.618125 -1.255 9.29875 -1 10 C-0.65939189 11.66519519 -0.32441604 13.33157466 0 15 C-0.99 15.495 -0.99 15.495 -2 16 C-2.23074219 15.48050781 -2.46148437 14.96101563 -2.69921875 14.42578125 C-4.90241929 9.71458958 -7.1116979 6.45626853 -11 3 C-7.46588679 0.87953208 -4.05606165 0.46800711 0 0 Z " fill="#9F9F9F" transform="translate(265,82)"/>
<path d="M0 0 C0.66 0.33 1.32 0.66 2 1 C1.67 1.33 1.34 1.66 1 2 C0.63239269 4.32817964 0.29758419 6.6618385 0 9 C-1.65 9 -3.3 9 -5 9 C-5.3125 6.75 -5.3125 6.75 -5 4 C-2.5 1.6875 -2.5 1.6875 0 0 Z " fill="#9C9C9C" transform="translate(187,97)"/>
<path d="M0 0 C0.66 0 1.32 0 2 0 C1.52797514 4.24822374 -0.96655518 6.19989709 -4 9 C-4.99 8.67 -5.98 8.34 -7 8 C-5.52071006 3.31558185 -5.52071006 3.31558185 -2.9375 1.75 C-2.298125 1.5025 -1.65875 1.255 -1 1 C-0.67 0.67 -0.34 0.34 0 0 Z " fill="#B0B0B0" transform="translate(263,128)"/>
<path d="M0 0 C2.97 0 5.94 0 9 0 C9 1.65 9 3.3 9 5 C4.68607774 4.5206753 2.83430453 3.2542015 0 0 Z " fill="#9B9B9B" transform="translate(182,120)"/>
<path d="M0 0 C3.35498935 1.38827146 5.15050455 2.85585774 7 6 C7 7.32 7 8.64 7 10 C6.01 10.33 5.02 10.66 4 11 C3.33125616 9.35500958 2.66505926 7.70898352 2 6.0625 C1.443125 4.68771484 1.443125 4.68771484 0.875 3.28515625 C0 1 0 1 0 0 Z " fill="#ADADAD" transform="translate(259,53)"/>
<path d="M0 0 C0.33 0 0.66 0 1 0 C2.10228696 4.40914783 2.07654536 8.48382401 2 13 C1.34 13 0.68 13 0 13 C-1.0161692 8.37078475 -0.83796731 4.65537393 0 0 Z " fill="#7C7C7C" transform="translate(185,62)"/>
<path d="M0 0 C2.475 0.99 2.475 0.99 5 2 C5 6.62 5 11.24 5 16 C4.67 16 4.34 16 4 16 C3.67 12.04 3.34 8.08 3 4 C2.01 3.67 1.02 3.34 0 3 C0 2.01 0 1.02 0 0 Z " fill="#D7D7D7" transform="translate(292,49)"/>
<path d="M0 0 C2.0625 2.1875 2.0625 2.1875 4 5 C3.75 7.8125 3.75 7.8125 3 10 C0.3144406 7.3144406 -0.06049974 4.62378672 -1 1 C-0.67 0.67 -0.34 0.34 0 0 Z " fill="#BDBDBD" transform="translate(261,88)"/>
<path d="M0 0 C1.98 0 3.96 0 6 0 C5.67 1.32 5.34 2.64 5 4 C3.0625 3.6875 3.0625 3.6875 1 3 C0.67 2.01 0.34 1.02 0 0 Z " fill="#CBCBCB" transform="translate(164,134)"/>
<path d="" fill="#FFFFFF" transform="translate(0,0)"/>
<path d="" fill="#FFFFFF" transform="translate(0,0)"/>
<path d="" fill="#FFFFFF" transform="translate(0,0)"/>
<path d="" fill="#FFFFFF" transform="translate(0,0)"/>
<path d="" fill="#FFFFFF" transform="translate(0,0)"/>
<path d="" fill="#FFFFFF" transform="translate(0,0)"/>
<path d="" fill="#FFFFFF" transform="translate(0,0)"/>
</svg>
